<svg width="1920" height="435" viewBox="0 0 1920 435" fill="none" xmlns="http://www.w3.org/2000/svg">
<g clip-path="url(#clip0_44_67)">
<path d="M388.799 -223.229L386.955 -221.146C387.121 -221.012 387.295 -220.878 387.495 -220.731C387.88 -220.449 388.357 -220.116 388.927 -219.726C389.997 -218.997 391.399 -218.071 393.042 -217.001C398.789 -213.263 407.507 -207.77 414.798 -203.205C422.089 -198.64 427.948 -195.005 427.951 -195.003L427.939 -195.011L454.481 -178.372L454.481 -178.37C454.892 -178.116 455.343 -177.927 455.819 -177.818L455.822 -177.815L468.495 -174.891C468.823 -174.815 469.163 -174.777 469.5 -174.777C470.073 -174.777 470.65 -174.886 471.186 -175.107L476.374 -177.234L475.809 -178.49L475.809 -177.125C476 -177.125 476.194 -177.16 476.374 -177.234L475.809 -178.49L475.809 -177.125L475.809 -178.487L474.865 -177.466C475.127 -177.242 475.47 -177.122 475.809 -177.125L475.809 -178.487L474.865 -177.466L474.862 -177.469L482.081 -171.328C482.866 -170.662 483.876 -170.296 484.927 -170.296L513.437 -170.296L590.894 -170.296C591.832 -170.296 592.746 -170.591 593.493 -171.137L600.567 -176.311L600.565 -176.311L599.7 -177.395L599.7 -176.03C600.014 -176.03 600.316 -176.128 600.565 -176.311L599.7 -177.395L599.7 -176.03L608.886 -176.03L608.886 -177.398L608.03 -176.305C608.278 -176.125 608.578 -176.03 608.886 -176.03L608.886 -177.398L608.03 -176.305L608.03 -176.303L620.591 -167.293L630.259 -160.683L630.257 -160.685C630.348 -160.623 630.431 -160.571 630.508 -160.527L641.043 -154.389L641.038 -154.395C641.123 -154.343 641.206 -154.299 641.28 -154.261L650.634 -149.573L651.297 -150.78L650.147 -149.974C650.275 -149.808 650.44 -149.671 650.634 -149.573L651.297 -150.78L650.147 -149.974L654.701 -144.033C655.326 -143.219 656.242 -142.654 657.272 -142.447L664.672 -140.956C664.963 -140.899 665.259 -140.869 665.553 -140.869C666.792 -140.869 667.982 -141.382 668.804 -142.297L668.804 -142.299L673.586 -147.634C673.986 -148.082 674.283 -148.606 674.451 -149.177L674.451 -149.174L676.859 -157.237L675.487 -157.611L676.386 -156.552C676.605 -156.721 676.777 -156.964 676.859 -157.237L675.487 -157.611L676.386 -156.552L675.487 -157.611L675.587 -156.249C675.883 -156.27 676.166 -156.38 676.386 -156.552L675.487 -157.611L675.587 -156.249L680.506 -156.587L680.406 -157.947L680.406 -156.582C680.438 -156.582 680.472 -156.584 680.506 -156.587L680.406 -157.947L680.406 -156.582L680.406 -157.947L679.536 -156.863C679.784 -156.683 680.09 -156.582 680.406 -156.582L680.406 -157.947L679.536 -156.863L679.536 -156.866L685.012 -152.836L685.009 -152.836L685.863 -153.895L684.852 -152.972C684.898 -152.926 684.952 -152.879 685.009 -152.836L685.863 -153.895L684.852 -152.972L684.85 -152.975L693.299 -144.467L693.299 -144.464L694.332 -145.406L692.965 -145.019C693.028 -144.811 693.142 -144.623 693.299 -144.464L694.332 -145.406L692.965 -145.019L696.492 -133.625L696.492 -133.622C696.618 -133.215 696.812 -132.831 697.06 -132.481L703.604 -123.299C704.089 -122.616 704.779 -122.092 705.581 -121.792L715.526 -118.068C716.023 -117.882 716.554 -117.786 717.087 -117.786L731.113 -117.786L740.841 -117.786L740.841 -119.152L740.07 -118.002C740.299 -117.86 740.567 -117.786 740.841 -117.786L740.841 -119.152L740.07 -118.002L752.315 -110.472L753.086 -111.621L751.824 -110.982C751.939 -110.775 752.107 -110.597 752.315 -110.472L753.086 -111.621L751.824 -110.982L751.859 -110.917L760.009 -96.1431C760.751 -94.7998 762.209 -93.9589 763.796 -93.9589L768.886 -93.9589C769.471 -93.9589 770.042 -94.0735 770.556 -94.281C771.326 -94.595 771.974 -95.1111 772.436 -95.7609C772.896 -96.4134 773.17 -97.2161 773.167 -98.0544L773.167 -106.395L773.167 -110.578L771.74 -110.578L772.61 -109.494C772.961 -109.754 773.167 -110.155 773.167 -110.578L771.74 -110.578L772.61 -109.494L777.122 -112.814L776.252 -113.898L776.252 -112.531C776.551 -112.531 776.868 -112.629 777.122 -112.814L776.252 -113.898L776.252 -112.531L776.252 -113.896L775.758 -112.615C775.918 -112.561 776.083 -112.531 776.252 -112.531L776.252 -113.896L775.758 -112.615L776.252 -113.896L775.313 -112.869C775.444 -112.76 775.598 -112.672 775.758 -112.615L776.252 -113.896L775.313 -112.869L781.705 -107.518L781.699 -107.523C781.913 -107.343 782.142 -107.187 782.378 -107.053L782.378 -107.056L790.697 -102.447C791.322 -102.101 792.035 -101.91 792.768 -101.899C793.142 -101.89 793.804 -101.877 794.586 -101.833C795.168 -101.8 795.819 -101.754 796.453 -101.686C796.926 -101.634 797.391 -101.574 797.805 -101.5C798.116 -101.445 798.399 -101.385 798.627 -101.328C798.798 -101.282 798.941 -101.238 799.035 -101.202C799.106 -101.178 799.155 -101.156 799.164 -101.151L799.166 -101.148L799.674 -102.016L798.932 -101.336C799.086 -101.186 799.166 -101.151 799.166 -101.148L799.674 -102.016L798.932 -101.336L800.279 -102.57L798.676 -101.664C798.764 -101.519 798.858 -101.413 798.932 -101.336L800.279 -102.57L798.676 -101.664L800.502 -102.696L798.444 -102.204C798.499 -101.994 798.584 -101.809 798.676 -101.664L800.502 -102.696L798.444 -102.204C798.479 -102.068 798.521 -101.921 798.573 -101.74C798.767 -101.071 799.104 -99.9629 799.52 -98.6114C800.77 -94.5596 802.725 -88.3726 803.353 -86.3849L804.72 -86.7808L803.293 -86.7808C803.293 -86.6498 803.313 -86.5133 803.353 -86.3849L804.72 -86.7808L803.293 -86.7808L804.717 -86.7808L803.552 -87.5644C803.381 -87.3351 803.293 -87.0593 803.293 -86.7808L804.717 -86.7808L803.552 -87.5644L795.294 -76.3401L795.297 -76.3401C795.086 -76.0534 794.914 -75.7449 794.789 -75.4227L794.766 -75.3654L788.006 -58.1206L788.009 -58.1206C787.863 -57.752 787.775 -57.3643 787.746 -56.9739L786.873 -45.2962L786.873 -45.299L788.297 -45.2007L787.252 -46.1317C787.03 -45.9024 786.896 -45.6075 786.873 -45.299L788.297 -45.2007L787.252 -46.1317L782.025 -40.7694L783.066 -39.8383L782.507 -41.0943C782.33 -41.0205 782.159 -40.9087 782.025 -40.7694L783.066 -39.8383L782.507 -41.0943L783.066 -39.8411L783.066 -41.2035C782.875 -41.2035 782.687 -41.168 782.507 -41.0943L783.066 -39.8411L783.066 -41.2035L783.066 -39.8356L783.517 -41.1325C783.369 -41.1816 783.215 -41.2035 783.066 -41.2035L783.066 -39.8356L783.517 -41.1325L783.066 -39.8329L783.936 -40.9223C783.811 -41.0124 783.665 -41.0861 783.517 -41.1325L783.066 -39.8329L783.936 -40.9223L777.813 -45.4L776.945 -44.3161L778.372 -44.3161C778.375 -44.7393 778.166 -45.1434 777.813 -45.4L776.945 -44.3161L778.372 -44.3161L776.922 -44.3161L778.352 -44.0786C778.366 -44.1632 778.372 -44.2423 778.372 -44.3161L776.922 -44.3161L778.352 -44.0786L778.352 -44.0868C778.449 -44.6383 778.575 -45.3945 778.674 -46.2355C778.774 -47.0764 778.854 -47.9911 778.854 -48.903C778.854 -49.2416 778.843 -49.5802 778.814 -49.9214C778.791 -50.1781 778.76 -50.4374 778.709 -50.705C778.632 -51.1064 778.523 -51.5269 778.292 -52.0047C778.178 -52.2422 778.027 -52.4962 777.815 -52.7555C777.604 -53.0149 777.327 -53.2825 776.971 -53.5118C776.8 -53.621 776.651 -53.7002 776.497 -53.7849C776.209 -53.935 775.901 -54.0852 775.547 -54.2463C774.933 -54.5302 774.197 -54.8469 773.392 -55.1827C770.99 -56.1875 768.005 -57.3507 766.612 -57.8886C766.096 -58.0879 765.55 -58.1889 765.011 -58.1889C764.067 -58.1889 763.136 -57.8885 762.372 -57.3179L752.917 -50.2354C751.959 -49.5201 751.365 -48.4443 751.282 -47.2839L749.964 -28.3355L749.964 -28.3382L751.382 -28.2454L750.135 -28.8979C750.035 -28.7259 749.975 -28.5321 749.964 -28.3382L751.382 -28.2454L750.135 -28.8979L728.673 8.67406L728.676 8.67135C728.547 8.89524 728.445 9.12457 728.365 9.35664L728.362 9.35937L717.869 39.9172L717.869 39.9199L719.227 40.3458L718.08 39.5268C717.989 39.6469 717.915 39.7779 717.869 39.9199L719.227 40.3458L718.08 39.5268L702.146 60.0015C702.009 60.1762 701.883 60.3673 701.775 60.5721L701.777 60.5639L695.183 72.763L696.45 73.391L696.013 72.0914C695.656 72.2006 695.357 72.4408 695.183 72.763L696.45 73.391L696.013 72.0914C694.532 72.5446 690.263 73.8415 685.937 75.0128C683.774 75.5998 681.596 76.1541 679.773 76.5527C678.863 76.752 678.041 76.9131 677.373 77.0196C677.039 77.0715 676.745 77.1097 676.508 77.1343C676.272 77.1588 676.086 77.167 675.995 77.167C675.966 77.167 675.946 77.167 675.941 77.167L675.938 77.167L675.886 77.9015L676.029 77.1779C675.963 77.167 675.938 77.167 675.938 77.167L675.886 77.9015L676.029 77.1779L675.689 78.9117L676.374 77.279C676.203 77.2134 676.095 77.1916 676.029 77.1779L675.689 78.9117L676.374 77.279L676.371 77.2762C676.177 77.2025 675.98 77.1343 675.761 77.0633C675.35 76.9268 674.856 76.7766 674.288 76.61C673.298 76.3179 672.077 75.9766 670.764 75.6162C666.826 74.5432 662.055 73.3118 660.454 72.9023L660.457 72.9023L660.086 74.221L661.301 73.5056C661.116 73.2135 660.808 72.9924 660.457 72.9023L660.086 74.221L661.301 73.5056L654.293 62.6089L653.083 63.3215L654.413 62.841C654.381 62.7618 654.341 62.6827 654.293 62.6089L653.083 63.3215L654.413 62.841L648.994 49.0146C648.865 48.6843 648.688 48.3703 648.477 48.0809L648.38 47.9498L638.709 34.9125C638.181 34.2026 637.434 33.6729 636.572 33.3972L625.326 29.8095C624.883 29.6703 624.424 29.5993 623.973 29.5993C622.968 29.5993 621.981 29.9379 621.196 30.5768L609.913 39.7725L609.916 39.7725C608.954 40.5533 608.409 41.6947 608.409 42.8905C608.409 42.9998 608.415 43.1171 608.426 43.2427L608.423 43.2318L609.231 52.4849C609.337 53.6971 609.999 54.8029 611.04 55.4992L613.235 56.9681L613.238 56.9708L614.057 55.8487L612.781 56.463C612.884 56.6623 613.052 56.8479 613.238 56.9708L614.057 55.8487L612.781 56.463L614.054 55.8487L612.627 55.8487C612.627 56.0534 612.675 56.2609 612.781 56.463L614.054 55.8487L612.627 55.8487L614.045 55.8487L612.812 55.1824C612.687 55.3981 612.627 55.6248 612.627 55.8487L614.045 55.8487L612.812 55.1824L614.057 55.8568L613.36 54.6582C613.14 54.7729 612.935 54.9695 612.812 55.1824L614.057 55.8568L613.36 54.6582L607.753 57.637C606.449 58.3305 605.618 59.622 605.556 61.0472L605.153 70.2784L605.153 70.2702C605.15 70.3248 605.15 70.3876 605.15 70.4504C605.15 71.5289 605.595 72.5637 606.389 73.3309L614.479 81.1451L615.492 80.184L614.168 80.6973C614.239 80.8612 614.345 81.0168 614.476 81.1451L615.492 80.184L614.168 80.6973L615.489 80.1868L614.065 80.1868C614.065 80.3615 614.099 80.5335 614.168 80.6973L615.489 80.1868L614.065 80.1868L615.492 80.1868L614.196 79.6134C614.108 79.7936 614.065 79.9929 614.065 80.1868L615.492 80.1868L614.196 79.6134L614.196 79.6107L612.633 82.8434L613.931 83.4167L613.74 82.0625C613.255 82.1253 612.832 82.4256 612.633 82.8434L613.931 83.4167L613.74 82.0625C612.938 82.1663 611.568 82.3328 610.07 82.4721C608.575 82.6113 606.94 82.7205 605.673 82.7205C605.264 82.7205 604.896 82.7096 604.602 82.6878C604.38 82.6714 604.197 82.6495 604.08 82.6304C604.035 82.6222 604 82.6168 603.977 82.6113L603.946 82.6031L603.838 82.9526L603.969 82.6113L603.946 82.6031L603.838 82.9526L603.969 82.6113L603.524 83.7744L604.157 82.6959C604.06 82.6441 604 82.6222 603.969 82.6113L603.524 83.7744L604.157 82.6959L603.201 84.3177L604.44 82.8843C604.326 82.7942 604.231 82.7369 604.157 82.6959L603.201 84.3177L604.44 82.8843L602.956 84.6017L605.008 83.556C604.828 83.2338 604.608 83.0181 604.44 82.8843L602.956 84.6017L605.008 83.556L602.83 84.6645L605.225 84.0884C605.173 83.8973 605.096 83.7144 605.008 83.556L602.83 84.6645L605.225 84.0884L602.83 84.6645L605.299 84.6645C605.299 84.4788 605.273 84.2823 605.225 84.0884L602.83 84.6645L605.299 84.6645C605.299 84.2986 605.242 83.9928 605.173 83.728C605.036 83.2311 604.851 82.8543 604.657 82.4994C604.308 81.8878 603.9 81.3499 603.452 80.8065C602.782 79.9956 602.011 79.1957 601.261 78.4558C600.513 77.7186 599.783 77.0442 599.215 76.5336C598.81 76.1677 598.333 75.8838 597.834 75.6981C597.334 75.5125 596.809 75.4223 596.284 75.4223C595.722 75.4223 595.16 75.5288 594.629 75.7391C594.098 75.952 593.602 76.2742 593.188 76.6892L590.072 79.8127C589.684 80.2004 589.387 80.6537 589.187 81.1342C588.99 81.6175 588.89 82.128 588.89 82.6386C588.887 83.3785 589.099 84.1294 589.53 84.7928L589.527 84.7901L593.753 91.3347C593.833 91.4603 593.918 91.575 594.004 91.6842L597.451 95.9544L597.454 95.9544C598.262 96.9564 599.514 97.5434 600.838 97.5434L602.819 97.5434L602.819 96.1783L602.262 97.437C602.434 97.5052 602.631 97.5462 602.819 97.5434L602.819 96.1783L602.262 97.437L602.816 96.1838L601.637 96.9428C601.789 97.1612 602 97.3305 602.262 97.437L602.816 96.1838L601.637 96.9428L602.822 96.1783L601.392 96.1783C601.392 96.4541 601.483 96.7298 601.637 96.9428L602.822 96.1783L601.392 96.1783L602.83 96.1783L601.392 96.1564L601.392 96.1783L602.83 96.1783L601.392 96.1564L602.068 96.1674L601.392 96.1537L601.392 96.1564L602.068 96.1674L601.392 96.1537L601.392 96.1564L601.392 96.1373L600.984 109.079L602.411 109.12L601.067 108.659C601.015 108.795 600.987 108.934 600.984 109.079L602.411 109.12L601.067 108.659L596.798 120.09L598.142 120.549L597.854 119.211C597.366 119.31 596.966 119.643 596.798 120.09L598.142 120.549L597.854 119.211L585.997 121.559L586.288 122.897L586.288 121.532C586.191 121.532 586.094 121.54 585.997 121.559L586.288 122.897L586.288 121.532L586.288 122.897L587.275 121.912C587.004 121.663 586.65 121.532 586.288 121.532L586.288 122.897L587.275 121.912L577.296 112.779L577.322 112.803L576.331 113.789L577.516 113.024C577.456 112.937 577.39 112.866 577.322 112.803L576.331 113.789L577.516 113.024L577.513 113.019L567.114 98.3107L567.111 98.3107C566.872 97.9694 566.578 97.6636 566.244 97.4069L566.17 97.3496L550.54 85.388C550.007 84.9785 549.376 84.7 548.708 84.5717L548.705 84.5717L540.019 82.9089C539.742 82.8543 539.46 82.8297 539.18 82.8297C539.063 82.8297 538.949 82.8324 538.837 82.8406L528.036 83.6679L528.148 85.0276L528.148 83.6652C528.111 83.6652 528.074 83.6652 528.036 83.6679L528.148 85.0276L528.148 83.6652L528.148 85.0304L528.995 83.9301C528.747 83.7553 528.45 83.6652 528.148 83.6652L528.148 85.0304L528.995 83.9301L528.992 83.9273L522.88 79.6407C522.147 79.1247 521.259 78.8462 520.349 78.8462L516.357 78.8462L516.357 80.2113L517.218 79.1219C516.979 78.9499 516.673 78.8462 516.357 78.8462L516.357 80.2113L517.218 79.1219L516.357 80.2113L517.729 79.8373C517.643 79.5479 517.455 79.2939 517.218 79.1219L516.357 80.2113L517.729 79.8373L515.498 72.3617C515.058 70.8873 513.794 69.7706 512.222 69.4703L502.257 67.5645C501.977 67.5099 501.697 67.4826 501.418 67.4826C500.353 67.4826 499.317 67.8621 498.518 68.5665L498.476 68.602L487.909 77.9042C487.161 78.5622 486.684 79.4496 486.559 80.4106L486.547 80.4953L485.814 86.1198L485.814 86.117C485.791 86.2863 485.78 86.4583 485.78 86.6276C485.78 87.3211 485.965 87.9928 486.302 88.588C486.639 89.1805 487.135 89.6992 487.754 90.076L497.976 96.3366L498.747 95.1872L497.334 95.3892C497.394 95.7769 497.628 96.1237 497.976 96.3366L498.747 95.1872L497.334 95.3892L499.021 106.267C499.146 107.089 499.531 107.853 500.122 108.459L505.984 114.469L507.025 113.538L505.621 113.762C505.667 114.026 505.792 114.272 505.984 114.469L507.025 113.538L505.621 113.762L507.813 126.357L507.813 126.351L509.205 126.133L507.796 126.133C507.796 126.206 507.801 126.277 507.813 126.351L509.205 126.133L507.796 126.133L509.197 126.133L507.816 125.892C507.801 125.966 507.796 126.048 507.796 126.133L509.197 126.133L507.816 125.892L507.818 125.884L504.791 141.611L506.195 141.859L505.761 140.557C505.259 140.71 504.885 141.114 504.791 141.611L506.195 141.859L505.761 140.557L496.412 143.405L484.407 147.233C483.503 147.519 482.726 148.09 482.198 148.846L479.114 153.272L480.301 154.028L480.041 152.685C479.662 152.753 479.328 152.964 479.114 153.272L480.301 154.028L480.041 152.685L469.097 154.626L469.354 155.964L469.354 154.602C469.269 154.602 469.183 154.61 469.097 154.626L469.354 155.964L469.354 154.602L469.354 155.967L470.019 154.757C469.816 154.656 469.588 154.602 469.354 154.602L469.354 155.967L470.019 154.757L469.354 155.97L470.533 155.197C470.401 155.011 470.219 154.858 470.019 154.757L469.354 155.97L470.533 155.197L470.45 155.08L465.222 147.771L464.044 148.543L465.442 148.265C465.405 148.09 465.331 147.921 465.222 147.771L464.044 148.543L465.442 148.265L463.267 138.274C463.125 137.616 462.814 137.005 462.366 136.489L460.905 134.812L459.809 135.686L461.236 135.686C461.236 135.375 461.121 135.061 460.905 134.812L459.809 135.686L461.236 135.686L459.806 135.686L461.064 136.336C461.179 136.134 461.236 135.905 461.236 135.686L459.806 135.686L461.064 136.336L463.459 132.079C463.798 131.473 463.969 130.804 463.969 130.138C463.969 129.431 463.775 128.718 463.393 128.088L459.418 121.516C459.027 120.866 458.462 120.347 457.82 120C457.175 119.654 456.453 119.471 455.711 119.471C455.018 119.471 454.304 119.635 453.662 119.97L450.166 121.797C449.47 122.16 448.891 122.701 448.5 123.361L445.404 128.544L446.642 129.221L446.588 127.856C446.094 127.875 445.649 128.134 445.404 128.544L446.642 129.221L446.588 127.856L436.38 128.232L436.435 129.589L436.435 128.232L436.38 128.232L436.435 129.589L436.435 128.232L436.435 129.597L437.228 128.462C437 128.314 436.723 128.232 436.435 128.232L436.435 129.597L437.228 128.462L436.435 129.597L437.753 129.073C437.645 128.822 437.456 128.606 437.228 128.462L436.435 129.597L437.753 129.073L432.682 117.344L432.716 117.423L431.392 117.947L432.825 117.947C432.825 117.767 432.788 117.589 432.716 117.423L431.392 117.947L432.825 117.947L431.127 117.947L432.825 118.005C432.825 117.974 432.825 117.955 432.825 117.947L431.127 117.947L432.825 118.005L432.825 117.988L433.264 102.433L433.264 102.447C433.264 102.414 433.264 102.382 433.264 102.343C433.264 101.401 432.925 100.489 432.303 99.7577L423.082 88.932C422.672 88.4487 422.155 88.0692 421.587 87.8126C421.019 87.5559 420.4 87.4221 419.764 87.4221C419.376 87.4221 418.985 87.474 418.602 87.575L401.991 92.0582C401.07 92.3067 400.262 92.8446 399.7 93.5845L399.643 93.6555L391.227 104.675L391.236 104.661L382.227 116.301C381.807 116.841 381.534 117.475 381.431 118.141L379.194 132.707L379.194 132.702L380.597 132.901L379.239 132.508C379.219 132.574 379.202 132.639 379.194 132.702L380.597 132.901L379.239 132.508L373.289 151.336L373.289 151.342L374.705 151.749L373.326 151.233C373.312 151.268 373.301 151.304 373.289 151.342L374.705 151.749L373.326 151.233L373.326 151.238L370.336 158.596L370.373 158.498L371.706 158.992L371.312 157.682C370.884 157.799 370.536 158.099 370.373 158.498L371.706 158.992L371.312 157.682L356.045 161.854L356.042 161.854L356.436 163.167L356.436 161.802C356.304 161.802 356.17 161.818 356.042 161.854L356.436 163.167L356.436 161.802L346.839 161.802C346.151 161.802 345.472 161.96 344.864 162.263L333.855 167.74L333.852 167.743L334.511 168.952L334.297 167.604C334.143 167.625 333.992 167.672 333.852 167.743L334.511 168.952L334.297 167.604L334.3 167.604L319.678 169.722C318.962 169.826 318.283 170.102 317.709 170.525L313.066 173.943L313.229 173.823L314.099 174.905L313.648 173.61C313.497 173.659 313.352 173.733 313.229 173.823L314.099 174.905L313.648 173.61L314.099 174.91L314.099 173.539C313.951 173.539 313.797 173.564 313.648 173.61L314.099 174.91L314.099 173.539L314.099 174.899L314.764 173.698C314.556 173.594 314.33 173.539 314.099 173.539L314.099 174.899L314.764 173.698L314.096 174.907L315.295 174.159C315.164 173.968 314.972 173.801 314.764 173.698L314.096 174.907L315.295 174.159L309.451 165.586L308.255 166.331L309.682 166.331C309.682 166.066 309.602 165.807 309.451 165.586L308.255 166.331L309.682 166.331L309.682 153.373C309.682 152.756 309.536 152.147 309.257 151.59L303.084 139.358L301.8 139.951L303.227 139.951C303.227 139.746 303.178 139.544 303.084 139.358L301.8 139.951L303.227 139.951L303.227 134.217L301.803 134.217L303.198 134.477C303.218 134.392 303.227 134.305 303.227 134.217L301.803 134.217L303.198 134.477L303.215 134.397L306.055 120.426L306.055 120.424C306.109 120.164 306.135 119.899 306.135 119.64C306.135 119.083 306.015 118.545 305.801 118.056C305.478 117.325 304.947 116.708 304.265 116.26C303.589 115.815 302.742 115.547 301.854 115.547C301.789 115.547 301.726 115.55 301.66 115.553L294.249 115.875C292.563 115.949 291.079 116.962 290.46 118.463L284.904 131.962C284.707 132.44 284.604 132.948 284.604 133.464L284.604 140.355L286.031 140.355L285.323 139.17C284.881 139.413 284.607 139.863 284.604 140.355L286.031 140.355L285.323 139.17L277.076 143.678C275.743 144.407 274.922 145.764 274.922 147.233L274.922 152.03L276.343 152.03L275.041 151.486C274.961 151.659 274.919 151.855 274.922 152.03L276.343 152.03L275.041 151.486L276.351 152.035L275.572 150.886C275.352 151.02 275.161 151.222 275.041 151.486L276.351 152.035L275.572 150.886L276.346 152.024L276.346 150.667C276.052 150.667 275.792 150.749 275.572 150.886L276.346 152.024L276.346 150.667L276.346 152.035L277.056 150.845C276.853 150.733 276.588 150.665 276.346 150.667L276.346 152.035L277.056 150.845L273.452 148.876L272.744 150.061L274.171 150.061C274.171 149.57 273.897 149.119 273.452 148.876L272.744 150.061L274.171 150.061L274.171 142.152C274.171 141.068 273.72 140.025 272.918 139.257L268.646 135.17C267.904 134.46 266.917 134.037 265.87 133.977L259.64 133.627C259.555 133.622 259.472 133.619 259.389 133.619C258.487 133.619 257.631 133.89 256.927 134.365C256.222 134.837 255.662 135.522 255.357 136.336L251.188 147.506C251.022 147.948 250.94 148.415 250.94 148.884L250.94 155.041C250.94 156.005 251.296 156.914 251.896 157.622C252.495 158.329 253.351 158.85 254.338 159.049L261.273 160.445L261.567 159.11L260.277 159.691C260.465 160.079 260.836 160.357 261.273 160.445L261.567 159.11L260.277 159.691L263.578 166.408L263.578 166.405L264.874 165.823L263.461 166.047C263.484 166.17 263.527 166.301 263.578 166.405L264.874 165.823L263.461 166.047L263.461 166.045C263.527 166.419 263.687 167.388 263.827 168.546C263.898 169.124 263.966 169.75 264.012 170.364C264.061 170.978 264.089 171.584 264.089 172.111C264.089 172.469 264.075 172.791 264.052 173.045C264.035 173.234 264.009 173.384 263.989 173.468C263.984 173.498 263.975 173.52 263.972 173.531L263.969 173.539L264.668 173.755L264.021 173.43C263.981 173.507 263.972 173.539 263.969 173.539L264.668 173.755L264.021 173.43L265.447 174.145L264.186 173.193C264.101 173.294 264.052 173.376 264.021 173.43L265.447 174.145L264.186 173.193L265.85 174.449L264.845 172.668C264.523 172.832 264.309 173.04 264.186 173.193L265.85 174.449L264.845 172.668L265.93 174.593L265.376 172.472C265.188 172.515 265.005 172.584 264.845 172.668L265.93 174.593L265.376 172.472L265.924 174.569L265.924 172.406C265.753 172.406 265.562 172.425 265.376 172.472L265.924 174.569L265.924 172.406L265.924 174.446L266.344 172.444C266.224 172.423 266.081 172.406 265.924 172.406L265.924 174.446L266.344 172.444L266.321 172.442L250.375 169.389C250.098 169.337 249.815 169.31 249.536 169.31C249.467 169.31 249.399 169.31 249.33 169.316L249.33 169.313L240.726 169.706L240.795 171.063L240.795 169.703L240.726 169.706L240.795 171.063L240.795 169.703L240.795 171.071L241.528 169.9C241.311 169.774 241.057 169.703 240.795 169.703L240.795 171.071L241.528 169.9L240.795 171.071L242.056 170.432C241.933 170.208 241.745 170.023 241.528 169.9L240.795 171.071L242.056 170.432L238.495 163.997L237.234 164.633L238.66 164.633C238.66 164.412 238.603 164.193 238.495 163.997L237.234 164.633L238.66 164.633L238.66 160.611C238.66 159.77 238.389 158.965 237.913 158.299C237.439 157.635 236.751 157.1 235.932 156.794L228.678 154.097C228.402 153.993 228.119 153.919 227.831 153.873L227.822 153.873L214.25 151.708L214.016 153.054L214.467 151.76C214.396 151.738 214.325 151.719 214.25 151.708L214.016 153.054L214.467 151.76L205.769 148.985L205.864 149.016L205.413 150.31L206.568 149.512C206.4 149.286 206.152 149.108 205.864 149.016L205.413 150.31L206.568 149.512L205.413 150.31L206.839 150.31C206.839 150.02 206.74 149.736 206.568 149.512L205.413 150.31L206.839 150.31L206.839 142.654L205.413 142.654L206.537 143.492C206.725 143.263 206.839 142.962 206.839 142.654L205.413 142.654L206.537 143.492L205.413 142.654L205.758 143.978C206.072 143.902 206.349 143.724 206.537 143.492L205.413 142.654L205.758 143.978L211.776 142.536C212.33 142.405 212.849 142.168 213.306 141.84L218.069 138.425C219.099 137.685 219.726 136.543 219.778 135.312L220.172 125.849C220.175 125.791 220.174 125.737 220.174 125.685C220.177 124.882 219.929 124.112 219.492 123.465C219.056 122.815 218.42 122.283 217.652 121.953L209.913 118.619C209.354 118.379 208.754 118.258 208.158 118.258C207.522 118.258 206.882 118.395 206.297 118.665L193.815 124.432L194.435 125.66L194.435 124.295C194.221 124.295 194.007 124.342 193.815 124.432L194.435 125.66L194.435 124.295L190.36 124.295L190.36 125.66L190.768 124.353C190.636 124.314 190.5 124.295 190.36 124.295L190.36 125.66L190.768 124.353L177.43 120.525C177.03 120.41 176.614 120.353 176.2 120.353C176.009 120.353 175.818 120.364 175.626 120.388L160.068 122.4L160.257 123.746L160.257 122.387C160.194 122.387 160.131 122.392 160.068 122.4L160.257 123.746L160.257 122.387L160.257 123.755L161.104 122.652C160.867 122.485 160.57 122.387 160.257 122.387L160.257 123.755L161.104 122.652L160.26 123.752L161.624 123.35C161.532 123.067 161.341 122.818 161.104 122.652L160.26 123.752L161.624 123.35L158.296 113.011L155.825 104.732C155.571 103.878 155.034 103.143 154.338 102.625C153.642 102.106 152.766 101.789 151.838 101.762L137.759 101.355L137.716 102.704L137.947 101.371C137.884 101.363 137.821 101.355 137.759 101.355L137.716 102.704L137.947 101.371L128.167 99.8123L127.933 101.158L129.024 100.276C128.815 100.039 128.507 99.8669 128.167 99.8123L127.933 101.158L129.024 100.276L127.933 101.158L129.36 101.158C129.36 100.831 129.232 100.511 129.024 100.276L127.933 101.158L129.36 101.158L129.36 96.8199L127.933 96.8199L128.79 97.912C129.149 97.6554 129.36 97.2513 129.36 96.8199L127.933 96.8199L128.79 97.912L135.142 93.3551C136.021 92.7244 136.614 91.7906 136.794 90.7531L138.07 83.4331L138.07 83.4304C138.098 83.2638 138.118 83.0973 138.124 82.9335L138.52 73.8469L138.52 73.8442C138.523 73.7869 138.523 73.7295 138.523 73.6749C138.523 73.1179 138.404 72.5746 138.187 72.0832C137.861 71.346 137.325 70.7262 136.643 70.2839C135.964 69.8415 135.122 69.5795 134.243 69.5795L118.556 69.5795L118.556 70.9446L119.784 70.2484C119.527 69.8334 119.062 69.5795 118.556 69.5795L118.556 70.9446L119.784 70.2484L111.482 56.8725L110.264 57.566L111.565 57.0254C111.542 56.9735 111.514 56.9217 111.482 56.8725L110.264 57.566L111.565 57.0254L105.621 43.898L105.644 43.9499L104.325 44.4959L105.706 44.1192C105.687 44.0591 105.667 44.0017 105.644 43.9499L104.325 44.4959L105.706 44.1192L105.701 44.1L101.155 28.884L101.175 28.944L99.8052 29.318L101.229 29.318C101.229 29.1897 101.209 29.0641 101.175 28.944L99.8052 29.318L101.229 29.318L101.229 13.1737C101.229 12.33 100.958 11.5081 100.45 10.8174L88.8243 -5.01032L88.8272 -5.00759L87.6601 -4.22402L88.9956 -4.69904C88.9528 -4.81099 88.8957 -4.91476 88.8272 -5.00759L87.6601 -4.22402L88.9956 -4.69904L88.967 -4.77551L84.4497 -16.4477L84.4526 -16.4394L79.6812 -28.887C79.1248 -30.3368 77.7637 -31.3662 76.1628 -31.5464L61.8661 -33.1545L61.9431 -33.1463L61.7775 -31.7921L62.899 -32.6331C62.665 -32.917 62.3226 -33.1026 61.9431 -33.1463L61.7775 -31.7921L62.899 -32.6331L46.8074 -52.305L46.8074 -52.3078L45.683 -51.4641L47.03 -51.9173C46.9786 -52.0593 46.9044 -52.1904 46.8074 -52.3078L45.683 -51.4641L47.03 -51.9173L41.5938 -66.6556L40.2753 -66.2106L41.628 -66.5491C41.6195 -66.5846 41.6081 -66.6201 41.5938 -66.6556L40.2753 -66.2106L41.628 -66.5491L41.628 -66.5464L38.977 -76.2691L37.5987 -75.9251L39.0255 -75.9251C39.0255 -76.0398 39.0084 -76.1571 38.977 -76.2691L37.5987 -75.9251L39.0255 -75.9251L37.5958 -75.9251L38.9627 -75.5319C39.0027 -75.6602 39.0255 -75.7913 39.0255 -75.9251L37.5958 -75.9251L38.9627 -75.5319L42.9835 -88.3508C43.0149 -88.4545 43.0434 -88.5556 43.0663 -88.6593L46.542 -104.039L45.1466 -104.329L46.1368 -103.346C46.3365 -103.526 46.4821 -103.772 46.542 -104.039L45.1466 -104.329L46.1368 -103.346L45.1466 -104.329L45.3948 -102.985C45.6802 -103.032 45.9399 -103.163 46.1368 -103.346L45.1466 -104.329L45.3948 -102.985L45.5118 -103.004L51.7813 -104.061L51.7841 -104.064C52.7715 -104.23 53.6646 -104.722 54.3124 -105.456L61.2582 -113.35C61.4551 -113.571 61.6263 -113.817 61.769 -114.076L65.2134 -120.301C65.5501 -120.904 65.7127 -121.571 65.7127 -122.215C65.7127 -122.914 65.5273 -123.597 65.1734 -124.205C64.8224 -124.814 64.2945 -125.352 63.6353 -125.729L55.7136 -130.278L55.7107 -130.278C55.4282 -130.439 55.1258 -130.573 54.8062 -130.668L54.809 -130.668L45.1152 -133.617L44.6842 -132.317L45.6402 -133.33C45.489 -133.461 45.3093 -133.56 45.1152 -133.62L44.6842 -132.317L45.6402 -133.33L36.3688 -141.355L36.3716 -141.355C36.0035 -141.671 35.584 -141.925 35.1303 -142.105L27.9934 -144.915L27.9962 -144.915C27.474 -145.12 26.9204 -145.223 26.3639 -145.223C25.933 -145.223 25.5021 -145.161 25.0883 -145.038L18.7418 -143.14C17.6974 -142.829 16.8185 -142.146 16.2849 -141.234L16.2849 -141.232L10.4891 -131.332L11.7361 -130.663L11.6591 -132.028C11.1712 -132.003 10.7288 -131.738 10.4891 -131.332L11.7361 -130.663L11.6591 -132.028L-13.3245 -130.747L-13.3273 -130.747L-13.2388 -129.278L-13.2388 -130.75C-13.2702 -130.75 -13.2988 -130.747 -13.3273 -130.747L-13.2388 -129.278L-13.2388 -130.75L-13.2388 -129.218L-13.1647 -130.747C-13.1932 -130.747 -13.216 -130.75 -13.2388 -130.75L-13.2388 -129.218L-13.1647 -130.747L-13.1733 -130.747L-35.9253 -131.618L-35.9824 -130.261L-35.4487 -131.52C-35.5971 -131.577 -35.7598 -131.613 -35.9253 -131.618L-35.9824 -130.261L-35.4487 -131.52L-35.4431 -131.517L-47.5196 -136.227L-47.5196 -136.224C-47.8078 -136.339 -48.1076 -136.418 -48.4101 -136.47L-48.4128 -136.47L-64.2363 -139.064L-64.2363 -139.067C-64.476 -139.105 -64.7157 -139.124 -64.9611 -139.124C-65.0496 -139.124 -65.138 -139.121 -65.2207 -139.116L-65.2322 -139.116L-79.4176 -138.267L-79.4149 -138.267L-79.3263 -136.91L-79.3263 -138.269C-79.3577 -138.269 -79.3892 -138.269 -79.4149 -138.267L-79.3263 -136.91L-79.3263 -138.269L-79.3263 -136.904L-78.6586 -138.111C-78.8669 -138.217 -79.0952 -138.269 -79.3263 -138.269L-79.3263 -136.904L-78.6586 -138.111L-78.6614 -138.111L-93.683 -145.72L-93.6516 -145.704C-94.2679 -146.018 -94.9557 -146.179 -95.652 -146.179C-95.7034 -146.179 -95.7461 -146.179 -95.7889 -146.179L-95.7947 -146.176L-108.239 -145.767L-108.245 -145.767L-108.191 -144.342L-108.191 -145.767L-108.245 -145.767L-108.191 -144.342L-108.191 -145.767L-108.191 -144.402L-107.263 -145.442C-107.523 -145.652 -107.851 -145.767 -108.191 -145.767L-108.191 -144.402L-107.263 -145.442L-118.795 -154.837L-119.72 -153.799L-118.293 -153.799C-118.293 -154.198 -118.475 -154.578 -118.795 -154.837L-119.72 -153.799L-118.293 -153.799L-118.293 -163.607L-119.725 -163.607L-118.33 -163.301C-118.304 -163.402 -118.293 -163.506 -118.293 -163.607L-119.725 -163.607L-118.33 -163.301L-118.327 -163.306L-113.887 -181.996L-115.279 -182.299L-114.552 -181.125C-114.215 -181.316 -113.975 -181.63 -113.887 -181.996L-115.279 -182.299L-114.552 -181.125L-102.9 -187.732L-102.9 -187.729L-103.628 -188.906L-103.485 -187.546C-103.28 -187.565 -103.08 -187.628 -102.9 -187.729L-103.628 -188.906L-103.485 -187.546L-80.8102 -189.717L-80.9529 -191.079L-80.9529 -189.709C-80.9101 -189.709 -80.8616 -189.711 -80.8102 -189.717L-80.9529 -191.079L-80.9529 -189.709L-68.2714 -189.709C-67.9489 -189.709 -67.6321 -189.744 -67.321 -189.812L-57.3875 -191.972L-57.3761 -191.975C-57.2877 -191.994 -57.1763 -192.021 -57.0593 -192.057L-57.0565 -192.057C-56.5657 -192.204 -52.8588 -193.318 -48.9722 -194.563C-47.0288 -195.186 -45.0428 -195.838 -43.3734 -196.428C-42.5373 -196.726 -41.781 -197.004 -41.1332 -197.261C-40.8079 -197.392 -40.5112 -197.515 -40.2344 -197.64C-39.9547 -197.766 -39.7036 -197.886 -39.4325 -198.042L-39.2983 -198.118L-39.4325 -198.042L-39.7006 -198.47L-39.4581 -198.028L-39.4325 -198.042L-39.7006 -198.47L-39.4581 -198.028C-39.4438 -198.033 -39.3554 -198.072 -39.2184 -198.118C-38.9616 -198.205 -38.5421 -198.317 -38.037 -198.427C-37.1496 -198.623 -35.9967 -198.814 -34.7839 -198.984C-32.9633 -199.24 -30.9942 -199.453 -29.4247 -199.603C-27.8552 -199.754 -26.6824 -199.844 -26.4341 -199.863L-26.4455 -199.863L-26.5483 -201.171L-26.5483 -199.857C-26.5169 -199.857 -26.474 -199.86 -26.4455 -199.863L-26.5483 -201.171L-26.5483 -199.857L-12.8707 -199.857C-12.671 -199.857 -12.4684 -199.871 -12.2687 -199.898L-12.2658 -199.898L-6.00208 -200.756L-5.99921 -200.756L-6.21043 -202.137L-6.21043 -200.742C-6.14479 -200.742 -6.07625 -200.745 -5.99921 -200.756L-6.21043 -202.137L-6.21043 -200.742L7.39582 -200.742L7.39582 -202.115L7.13897 -200.764C7.22458 -200.747 7.31021 -200.742 7.39582 -200.742L7.39582 -202.115L7.13897 -200.764L24.9257 -197.709L24.9285 -197.709L25.174 -199.022L24.7773 -197.741C24.8172 -197.73 24.8658 -197.719 24.9285 -197.709L25.174 -199.022L24.7773 -197.741L24.7659 -197.744L42.8208 -192.562L42.818 -192.565L43.2289 -193.867L42.2644 -192.865C42.4213 -192.726 42.6097 -192.625 42.818 -192.565L43.2289 -193.867L42.2644 -192.865L42.2615 -192.868L47.6634 -188.095C48.3483 -187.494 49.2159 -187.12 50.1405 -187.03L50.2118 -187.025L63.1587 -185.785L63.3014 -187.148L62.5195 -186.001C62.7136 -185.881 62.9304 -185.807 63.1587 -185.785L63.3014 -187.148L62.5195 -186.001L62.551 -185.982L70.9407 -180.764C71.6398 -180.327 72.453 -180.101 73.2748 -180.101C73.6059 -180.101 73.9426 -180.139 74.2765 -180.215L74.2737 -180.215L84.9748 -182.673L84.972 -182.673C85.4343 -182.776 85.8737 -182.957 86.2732 -183.2L106.326 -195.407L106.314 -195.401L105.547 -196.548L106.203 -195.339C106.229 -195.352 106.269 -195.374 106.314 -195.401L105.547 -196.548L106.203 -195.339L106.197 -195.336L134.679 -209.402L134.677 -209.4C134.782 -209.452 134.896 -209.514 135.011 -209.585L135.002 -209.577L152.258 -220.007L152.244 -219.996L151.482 -221.151L151.75 -219.811C151.927 -219.843 152.092 -219.906 152.244 -219.996L151.482 -221.151L151.75 -219.811L180.406 -225.034L180.403 -225.034L180.138 -226.371L180.138 -225.009C180.226 -225.009 180.315 -225.017 180.403 -225.034L180.138 -226.371L180.138 -225.009L245.874 -225.009C246.037 -225.009 246.191 -225.02 246.334 -225.034L246.34 -225.034L279.393 -228.548L279.396 -228.548L279.236 -229.913L279.236 -228.539C279.285 -228.539 279.339 -228.542 279.396 -228.548L279.236 -229.913L279.236 -228.539L366.078 -228.539L366.078 -231.27L365.482 -228.599C367.631 -228.16 370.975 -227.475 373.124 -227.035L373.723 -229.705L372.553 -227.212L387.629 -220.739L388.799 -223.229L386.955 -221.146L388.799 -223.229L389.969 -225.719L374.616 -232.313L374.319 -232.373C372.171 -232.815 368.826 -233.5 366.677 -233.94L366.381 -234L279.236 -234C279.082 -234 278.925 -233.992 278.763 -233.975L245.717 -230.462L245.729 -230.464L245.874 -229.162L245.874 -230.47C245.814 -230.47 245.769 -230.467 245.729 -230.464L245.874 -229.162L245.874 -230.47L180.138 -230.47C179.873 -230.47 179.604 -230.445 179.339 -230.399L150.683 -225.176C150.155 -225.08 149.652 -224.889 149.199 -224.616L149.196 -224.616L131.951 -214.194L131.943 -214.189L132.75 -212.976L132.063 -214.254C132.031 -214.241 131.988 -214.216 131.943 -214.189L132.75 -212.976L132.063 -214.254L103.581 -200.19L103.575 -200.188C103.472 -200.136 103.358 -200.076 103.241 -200.002L103.227 -199.994L83.2083 -187.806L83.976 -186.653L83.6422 -187.983C83.4881 -187.948 83.3425 -187.888 83.2083 -187.806L83.976 -186.653L83.6422 -187.983L83.6422 -187.98L72.941 -185.523L72.9382 -185.523L73.2748 -184.191L73.2748 -185.561C73.1636 -185.561 73.0494 -185.55 72.9382 -185.523L73.2748 -184.191L73.2748 -185.561L73.2748 -184.196L74.0511 -185.34C73.82 -185.488 73.5488 -185.561 73.2748 -185.561L73.2748 -184.196L74.0511 -185.34L65.6329 -190.577L65.6357 -190.577C65.0593 -190.935 64.4058 -191.153 63.7237 -191.219L63.7266 -191.219L50.7112 -192.464L50.5685 -191.107L51.5359 -192.109C51.3076 -192.308 51.0194 -192.434 50.7112 -192.464L50.5685 -191.107L51.5359 -192.109L46.1339 -196.881L46.131 -196.881C45.6545 -197.302 45.0838 -197.613 44.4617 -197.793L26.4067 -202.975L26.3954 -202.978C26.2527 -203.019 26.0985 -203.054 25.9302 -203.085L25.933 -203.085L8.152 -206.137L8.15487 -206.137C7.90375 -206.181 7.64979 -206.203 7.39582 -206.203L-6.21043 -206.203C-6.41304 -206.203 -6.61846 -206.189 -6.82678 -206.159L-6.81537 -206.162L-13.0734 -205.304L-13.0705 -205.307L-12.8707 -203.966L-12.8707 -205.318C-12.9364 -205.318 -13.002 -205.315 -13.0705 -205.307L-12.8707 -203.966L-12.8707 -205.318L-26.5483 -205.318C-26.6567 -205.318 -26.7709 -205.315 -26.8708 -205.307L-26.8793 -205.307L-26.885 -205.307C-27.3473 -205.271 -30.3836 -205.037 -33.6339 -204.644C-35.2633 -204.447 -36.9413 -204.212 -38.4223 -203.931C-39.1614 -203.789 -39.852 -203.639 -40.4912 -203.459C-40.8108 -203.368 -41.119 -203.273 -41.4243 -203.158C-41.7325 -203.044 -42.0349 -202.913 -42.3688 -202.724C-42.3774 -202.719 -42.4944 -202.656 -42.6628 -202.582C-42.9852 -202.437 -43.4989 -202.23 -44.121 -201.998C-45.211 -201.591 -46.6379 -201.1 -48.1589 -200.594C-52.7361 -199.079 -58.1837 -197.441 -58.7658 -197.266L-58.763 -197.269L-58.3606 -196.029L-58.666 -197.294C-58.6802 -197.291 -58.7202 -197.28 -58.763 -197.269L-58.3606 -196.029L-58.666 -197.294L-58.6517 -197.296L-68.5881 -195.137L-68.5909 -195.137L-68.2714 -193.799L-68.2714 -195.169C-68.3798 -195.169 -68.4853 -195.158 -68.5909 -195.137L-68.2714 -193.799L-68.2714 -195.169L-80.9529 -195.169C-81.0899 -195.169 -81.2325 -195.164 -81.378 -195.15L-81.4751 -195.142L-104.053 -192.98L-104.05 -192.98C-104.672 -192.922 -105.272 -192.734 -105.808 -192.431L-117.625 -185.728L-117.462 -185.821C-118.472 -185.25 -119.192 -184.303 -119.454 -183.205L-123.894 -164.513L-123.892 -164.516C-123.966 -164.216 -124 -163.91 -124 -163.607L-124 -153.799C-124 -152.598 -123.449 -151.46 -122.496 -150.681L-110.967 -141.284L-110.967 -141.286C-110.191 -140.653 -109.207 -140.306 -108.191 -140.306C-108.137 -140.306 -108.088 -140.309 -108.04 -140.309L-108.042 -140.309L-95.6034 -140.721L-95.6149 -140.718L-95.652 -141.942L-95.652 -140.718L-95.6149 -140.718L-95.652 -141.942L-95.652 -140.718L-95.652 -142.081L-96.3169 -140.877C-96.1114 -140.773 -95.8832 -140.718 -95.652 -140.718L-95.652 -142.081L-96.3169 -140.877L-96.3197 -140.877L-81.3295 -133.287L-81.3324 -133.287C-80.7132 -132.973 -80.0226 -132.809 -79.3263 -132.809C-79.2378 -132.809 -79.1494 -132.811 -79.0638 -132.817L-64.8698 -133.666L-64.8783 -133.666L-64.9611 -134.982L-64.9611 -133.663C-64.9297 -133.663 -64.9011 -133.663 -64.8783 -133.666L-64.9611 -134.982L-64.9611 -133.663L-64.9611 -135.023L-65.2008 -133.682C-65.1209 -133.669 -65.041 -133.663 -64.9611 -133.663L-64.9611 -135.023L-65.2008 -133.682L-49.3774 -131.089L-49.3802 -131.089L-49.1377 -132.432L-49.6741 -131.171C-49.5771 -131.132 -49.4773 -131.105 -49.3802 -131.089L-49.1377 -132.432L-49.6741 -131.171L-37.5776 -126.455L-37.5947 -126.461C-37.1382 -126.283 -36.6501 -126.182 -36.1536 -126.163L-13.4101 -125.292L-13.4301 -125.292C-13.3616 -125.289 -13.2988 -125.289 -13.2388 -125.289C-13.1589 -125.289 -13.0791 -125.289 -13.002 -125.295L-13.0106 -125.295L11.9644 -126.575C13.4283 -126.649 14.7525 -127.438 15.4688 -128.664L21.2645 -138.564L20.0203 -139.23L20.4455 -137.928C20.7937 -138.032 21.0847 -138.261 21.2645 -138.564L20.0203 -139.23L20.4455 -137.928L26.7891 -139.826L26.3639 -141.131L26.3639 -139.763C26.5095 -139.763 26.6521 -139.785 26.7891 -139.826L26.3639 -141.131L26.3639 -139.763L26.3639 -141.131L25.8189 -139.867C25.993 -139.798 26.1784 -139.763 26.3639 -139.763L26.3639 -141.131L25.8189 -139.867L32.9558 -137.057L32.953 -137.057L33.4952 -138.316L32.5392 -137.306C32.6647 -137.199 32.8046 -137.114 32.953 -137.057L33.4952 -138.316L32.5392 -137.306L32.542 -137.306L41.8107 -129.281L41.8135 -129.278C42.2672 -128.888 42.8037 -128.593 43.3858 -128.416L53.0768 -125.464L53.0797 -125.464L53.5106 -126.764L52.7772 -125.592C52.8714 -125.541 52.9713 -125.497 53.0797 -125.464L53.5106 -126.764L52.7772 -125.592L52.7772 -125.595L60.6989 -121.046L60.6961 -121.046L61.4322 -122.218L60.1824 -121.557C60.2994 -121.355 60.4821 -121.169 60.6961 -121.046L61.4322 -122.218L60.1824 -121.557L61.4266 -122.215L60.0055 -122.215C60.0055 -121.983 60.0654 -121.759 60.1824 -121.557L61.4266 -122.215L60.0055 -122.215L61.4351 -122.215L60.171 -122.857C60.0625 -122.66 60.0055 -122.431 60.0055 -122.215L61.4351 -122.215L60.171 -122.857L56.7181 -116.618L56.7237 -116.626L57.9965 -115.982L56.895 -116.869C56.8293 -116.795 56.7722 -116.713 56.7237 -116.626L57.9965 -115.982L56.895 -116.869L49.9464 -108.976L51.0365 -108.096L50.7882 -109.44C50.46 -109.385 50.1633 -109.221 49.9464 -108.976L51.0365 -108.096L50.7882 -109.44L44.2904 -108.342L44.4046 -108.361C43.5485 -108.217 42.7781 -107.832 42.1788 -107.28C41.5795 -106.729 41.1458 -106.005 40.9632 -105.194L37.4902 -89.8169L37.4902 -89.8197L38.8743 -89.533L37.5188 -89.9234C37.5074 -89.888 37.4959 -89.8525 37.4902 -89.8197L38.8743 -89.533L37.5188 -89.9234L37.5159 -89.9207L33.4979 -77.1018C33.3781 -76.7169 33.3182 -76.321 33.3182 -75.9251C33.3182 -75.5756 33.3639 -75.2288 33.4552 -74.8903L36.1062 -65.1676L36.1062 -65.1621C36.1376 -65.0556 36.1719 -64.9465 36.2118 -64.8372L41.648 -50.1016C41.8021 -49.6812 42.0275 -49.288 42.3158 -48.9385L42.3129 -48.9385L58.4046 -29.2665C59.1094 -28.4065 60.1424 -27.8495 61.2753 -27.7239L75.4951 -26.1212L75.6605 -27.4782L74.3222 -27.0086C74.5077 -26.5253 74.9614 -26.1813 75.4951 -26.1212L75.6605 -27.4782L74.3222 -27.0086L79.0935 -14.5583L83.645 -2.80147L83.645 -2.80424C83.7734 -2.47114 83.9446 -2.15711 84.1558 -1.87043L95.7815 13.9572L95.7815 13.96L96.9487 13.1737L95.5218 13.1737C95.5218 13.4549 95.6132 13.7279 95.7815 13.96L96.9487 13.1737L95.5218 13.1737L95.5218 29.318C95.5218 29.7003 95.5761 30.0771 95.6845 30.443L100.219 45.6181L100.216 45.6154C100.27 45.7901 100.333 45.9594 100.404 46.1205L100.427 46.1696L106.329 59.196C106.4 59.3544 106.483 59.51 106.574 59.6575L106.574 59.6602L114.875 73.036C115.649 74.2783 117.047 75.0401 118.556 75.0401L134.243 75.0401L134.243 73.6749L133.686 74.9309C133.858 75.0019 134.055 75.0401 134.243 75.0401L134.243 73.6749L133.686 74.9309L134.24 73.6777L133.061 74.4394C133.213 74.6551 133.424 74.8244 133.686 74.9309L134.24 73.6777L133.061 74.4394L134.249 73.6749L132.816 73.6749C132.816 73.9507 132.907 74.2265 133.061 74.4394L134.249 73.6749L132.816 73.6749L134.206 73.6749L132.819 73.6203L132.816 73.6749L134.206 73.6749L132.819 73.6203L132.422 82.7014L132.422 82.6987L133.826 82.756L132.439 82.5376C132.431 82.5949 132.425 82.6468 132.422 82.6987L133.826 82.756L132.439 82.5376L131.167 89.8549L132.573 90.0787L131.717 88.9866C131.423 89.1968 131.227 89.5081 131.167 89.8549L132.573 90.0787L131.717 88.9866L125.365 93.5435C124.287 94.3189 123.653 95.5312 123.653 96.8199L123.653 101.158C123.653 102.155 124.035 103.094 124.669 103.807C125.3 104.522 126.204 105.035 127.231 105.199L137.022 106.761L137.017 106.758C137.202 106.788 137.393 106.807 137.584 106.813L151.664 107.22L151.71 105.857L150.831 106.933C151.062 107.105 151.359 107.212 151.664 107.22L151.71 105.857L150.831 106.933L151.71 105.857L150.337 106.231C150.42 106.515 150.6 106.761 150.831 106.933L151.71 105.857L150.337 106.231L152.826 114.567L156.167 124.956L156.167 124.959C156.444 125.821 157.009 126.553 157.725 127.056C158.445 127.558 159.326 127.847 160.257 127.847C160.448 127.847 160.642 127.836 160.833 127.812L176.391 125.8L176.2 124.451L176.2 125.813C176.263 125.813 176.328 125.808 176.391 125.8L176.2 124.451L176.2 125.813L176.2 124.445L175.789 125.753C175.923 125.794 176.063 125.813 176.2 125.813L176.2 124.445L175.789 125.753L189.13 129.584C189.529 129.698 189.943 129.756 190.36 129.756L194.435 129.756C195.08 129.756 195.716 129.617 196.298 129.349L208.777 123.583L208.158 122.354L208.158 123.719C208.369 123.719 208.583 123.675 208.777 123.583L208.158 122.354L208.158 123.719L208.158 122.357L207.573 123.599C207.758 123.678 207.958 123.719 208.158 123.719L208.158 122.357L207.573 123.599L215.309 126.93L215.894 125.688L214.696 126.428C214.841 126.641 215.055 126.821 215.309 126.93L215.894 125.688L214.696 126.428L215.897 125.685L214.467 125.685C214.467 125.952 214.55 126.212 214.696 126.428L215.897 125.685L214.467 125.685L215.888 125.685L214.47 125.63L214.467 125.685L215.888 125.685L214.47 125.63L214.073 135.094L215.5 135.148L214.644 134.056C214.302 134.302 214.091 134.684 214.073 135.094L215.5 135.148L214.644 134.056L209.881 137.472L210.737 138.564L210.392 137.24C210.21 137.283 210.035 137.363 209.881 137.472L210.737 138.564L210.392 137.24L204.374 138.679C203.426 138.905 202.607 139.432 202.04 140.131C201.469 140.83 201.132 141.717 201.132 142.654L201.132 150.31C201.132 151.189 201.429 152.027 201.94 152.704C202.451 153.384 203.187 153.919 204.06 154.195L204.057 154.195L212.661 156.939C212.875 157.007 213.092 157.059 213.311 157.095L226.892 159.26L226.889 159.26L227.123 157.914L226.607 159.186C226.701 159.219 226.795 159.243 226.889 159.26L227.123 157.914L226.607 159.186L226.609 159.186L233.949 161.916L233.863 161.884L234.38 160.611L233.201 161.384C233.358 161.602 233.592 161.783 233.863 161.884L234.38 160.611L233.201 161.384L234.38 160.611L232.953 160.611C232.953 160.892 233.044 161.163 233.201 161.384L234.38 160.611L232.953 160.611L232.953 164.633C232.953 165.302 233.124 165.96 233.45 166.55L237.011 172.985C237.382 173.657 237.936 174.206 238.589 174.58C239.242 174.956 240.004 175.167 240.795 175.164C240.863 175.164 240.929 175.164 240.997 175.161L249.601 174.768L249.604 174.768L249.536 173.397L249.536 174.771L249.604 174.768L249.536 173.397L249.536 174.771L249.536 173.406L249.256 174.743C249.347 174.763 249.441 174.771 249.536 174.771L249.536 173.406L249.256 174.743L265.225 177.799L265.222 177.799C265.442 177.842 265.679 177.867 265.924 177.867C266.452 177.87 267.028 177.739 267.502 177.501C267.919 177.296 268.253 177.026 268.504 176.758C268.723 176.524 268.886 176.291 269.017 176.07C269.243 175.683 269.371 175.333 269.471 174.997C269.617 174.498 269.685 174.028 269.734 173.553C269.779 173.078 269.796 172.597 269.796 172.111C269.796 171.399 269.759 170.672 269.705 169.96C269.537 167.825 269.206 165.807 269.094 165.157C269.029 164.783 268.909 164.417 268.743 164.084L265.439 157.365C264.868 156.204 263.761 155.366 262.448 155.101L255.514 153.704L255.22 155.041L256.327 154.181C256.13 153.947 255.839 153.769 255.514 153.704L255.22 155.041L256.327 154.181L255.22 155.041L256.647 155.041C256.647 154.722 256.527 154.413 256.327 154.181L255.22 155.041L256.647 155.041L256.647 148.884L255.22 148.884L256.564 149.343C256.618 149.196 256.647 149.04 256.647 148.884L255.22 148.884L256.564 149.343L260.733 138.173L259.389 137.715L260.208 138.831C260.442 138.676 260.631 138.444 260.733 138.173L259.389 137.715L260.208 138.831L259.389 137.715L259.389 139.08C259.689 139.08 259.977 138.99 260.208 138.831L259.389 137.715L259.389 139.08L259.389 137.728L259.306 139.077C259.332 139.08 259.361 139.08 259.389 139.08L259.389 137.728L259.306 139.077L265.536 139.429L265.619 138.067L264.611 139.031C264.857 139.268 265.188 139.41 265.536 139.429L265.619 138.067L264.611 139.031L268.949 143.181L268.883 143.118L269.891 142.152L268.464 142.152C268.464 142.515 268.615 142.861 268.883 143.118L269.891 142.152L268.464 142.152L268.464 150.061C268.464 151.53 269.288 152.887 270.621 153.616L274.222 155.587C274.882 155.948 275.629 156.131 276.346 156.128C276.913 156.128 277.461 156.019 277.961 155.825C278.711 155.53 279.37 155.041 279.853 154.383C280.095 154.056 280.289 153.684 280.423 153.286C280.557 152.887 280.629 152.461 280.629 152.03L280.629 147.233L279.202 147.233L279.91 148.418C280.355 148.175 280.629 147.724 280.629 147.233L279.202 147.233L279.91 148.418L288.157 143.91C289.489 143.181 290.311 141.824 290.311 140.355L290.311 133.464L288.884 133.464L290.214 133.963C290.28 133.805 290.311 133.633 290.311 133.464L288.884 133.464L290.214 133.963L295.77 120.465L294.443 119.965L294.509 121.33C295.068 121.305 295.565 120.967 295.77 120.467L294.443 119.965L294.509 121.33L301.917 121.008L301.854 119.7L301.854 121.008L301.917 121.008L301.854 119.7L301.854 121.008L301.854 119.637L301.292 120.896C301.466 120.97 301.666 121.008 301.854 121.008L301.854 119.637L301.292 120.896L301.851 119.648L300.67 120.404C300.818 120.617 301.03 120.789 301.292 120.896L301.851 119.648L300.67 120.404L301.863 119.64L300.427 119.64C300.427 119.921 300.519 120.191 300.67 120.404L301.863 119.64L300.427 119.64L301.834 119.64L300.453 119.383C300.436 119.465 300.427 119.553 300.427 119.64L301.834 119.64L300.453 119.383L297.597 133.436C297.545 133.693 297.52 133.955 297.52 134.217L297.52 139.951C297.52 140.568 297.665 141.177 297.945 141.731L304.117 153.966L305.401 153.373L303.974 153.373C303.974 153.578 304.023 153.78 304.117 153.966L305.401 153.373L303.974 153.373L303.974 166.331C303.974 167.126 304.217 167.904 304.671 168.57L304.811 168.778L310.643 177.332L310.512 177.143C310.917 177.739 311.477 178.214 312.099 178.528C312.721 178.842 313.406 179 314.099 179C314.553 179 315.009 178.932 315.455 178.79C315.897 178.651 316.325 178.435 316.707 178.151L321.19 174.853L320.317 173.769L320.531 175.12C320.771 175.087 320.999 174.995 321.19 174.853L320.317 173.769L320.531 175.12L335.176 172.999L335.153 173.001C335.618 172.933 336.069 172.794 336.489 172.586L336.486 172.586L347.498 167.109L347.495 167.109L346.839 165.9L346.839 167.262C347.07 167.262 347.296 167.21 347.495 167.109L346.839 165.9L346.839 167.262L356.436 167.262C356.832 167.262 357.229 167.21 357.611 167.104L372.881 162.932C374.168 162.58 375.21 161.671 375.695 160.477L378.646 153.215L378.643 153.218C378.686 153.119 378.723 153.015 378.754 152.912L378.754 152.917L384.701 134.089L384.701 134.092C384.764 133.898 384.809 133.701 384.838 133.505L384.841 133.502L387.078 118.936L387.078 118.938L385.666 118.739L386.813 119.55C386.953 119.37 387.044 119.159 387.078 118.938L385.666 118.739L386.813 119.55L395.83 107.902L404.306 96.8063L403.156 96.0008L403.541 97.3141C403.849 97.2322 404.117 97.052 404.306 96.8063L403.156 96.0008L403.541 97.3141L420.152 92.8309L419.764 91.5176L419.764 92.8828C419.895 92.8828 420.026 92.8664 420.152 92.8309L419.764 91.5176L419.764 92.8828L419.764 91.5176L419.156 92.7544C419.347 92.8391 419.553 92.8828 419.764 92.8828L419.764 91.5176L419.156 92.7544L419.764 91.5176L418.659 92.3804C418.793 92.5415 418.968 92.6671 419.156 92.7544L419.764 91.5176L418.659 92.3804L427.877 103.206L428.984 102.343L427.557 102.343C427.557 102.66 427.671 102.963 427.877 103.206L428.984 102.343L427.557 102.343L428.841 102.343L427.557 102.313L427.557 102.343L428.841 102.343L427.557 102.313L427.557 102.308L427.12 117.835L427.12 117.816C427.118 117.873 427.118 117.917 427.118 117.947C427.118 118.485 427.229 119.017 427.443 119.514L432.479 131.162C432.81 131.926 433.373 132.565 434.06 133.002C434.748 133.442 435.573 133.693 436.435 133.693C436.492 133.693 436.546 133.69 436.6 133.687L446.808 133.313C448.283 133.259 449.624 132.481 450.358 131.252L453.454 126.07L453.457 126.067L452.215 125.39L452.9 126.589C453.131 126.469 453.325 126.288 453.457 126.067L452.215 125.39L452.9 126.589L456.396 124.765L455.711 123.563L455.711 124.931C455.942 124.931 456.187 124.874 456.396 124.765L455.711 123.563L455.711 124.931L455.711 123.572L455.012 124.757C455.226 124.871 455.463 124.931 455.711 124.931L455.711 123.572L455.012 124.757L455.714 123.566L454.478 124.251C454.604 124.462 454.798 124.642 455.012 124.757L455.714 123.566L454.478 124.251L458.55 130.979L458.453 130.821L459.689 130.138L458.262 130.138C458.262 130.376 458.328 130.613 458.453 130.821L459.689 130.138L458.262 130.138L459.689 130.138L458.433 129.491C458.319 129.693 458.262 129.917 458.262 130.138L459.689 130.138L458.433 129.491L456.039 133.745L456.042 133.742C455.697 134.351 455.528 135.023 455.528 135.686C455.528 136.623 455.868 137.556 456.521 138.307L456.824 138.657L457.982 139.984L457.98 139.984L459.075 139.11L457.68 139.388C457.728 139.61 457.831 139.812 457.98 139.984L459.075 139.11L457.68 139.388L459.854 149.379C459.971 149.906 460.194 150.408 460.514 150.856L465.824 158.28L465.821 158.28C466.224 158.842 466.76 159.292 467.368 159.596C467.976 159.899 468.655 160.062 469.354 160.062C469.614 160.062 469.876 160.041 470.136 159.994L481.08 158.056C482.218 157.854 483.22 157.223 483.865 156.3L487.07 151.699L486.947 151.874L485.76 151.118L486.211 152.412C486.51 152.317 486.77 152.128 486.947 151.874L485.76 151.118L486.211 152.412L498.179 148.595L507.49 145.761L507.493 145.761C508.997 145.302 510.116 144.087 510.404 142.599L513.432 126.873L513.432 126.864C513.477 126.627 513.503 126.381 513.503 126.133C513.503 125.909 513.483 125.685 513.446 125.464L511.248 112.863L511.248 112.861C511.112 112.069 510.732 111.332 510.156 110.742L504.297 104.735L503.255 105.666L504.665 105.467C504.622 105.191 504.494 104.937 504.297 104.735L503.255 105.666L504.665 105.467L502.981 94.5865C502.799 93.4179 502.097 92.3777 501.055 91.7388L490.831 85.4781L490.06 86.6276L491.313 85.975C491.202 85.7785 491.036 85.6037 490.831 85.4781L490.06 86.6276L491.313 85.975L490.06 86.6276L491.487 86.6276C491.487 86.3955 491.427 86.1716 491.313 85.975L490.06 86.6276L491.487 86.6276L490.057 86.6276L491.476 86.7996C491.484 86.7423 491.487 86.685 491.487 86.6276L490.057 86.6276L491.476 86.7996L492.223 81.0878L492.223 81.0905L490.808 80.9212L491.772 81.9233C492.021 81.7048 492.18 81.4072 492.223 81.0905L490.808 80.9212L491.772 81.9233L502.382 72.5828L502.385 72.5828L501.418 71.578L501.418 72.9432C501.772 72.9432 502.117 72.8176 502.385 72.5828L501.418 71.578L501.418 72.9432L501.418 71.5808L501.138 72.9186C501.229 72.935 501.324 72.9432 501.418 72.9432L501.418 71.5808L501.138 72.9186L511.103 74.8244L511.383 73.4866L510.01 73.8606C510.156 74.3521 510.578 74.7234 511.103 74.8244L511.383 73.4866L510.01 73.8606L512.242 81.3362C512.504 82.2127 513.058 82.9608 513.78 83.4823C514.502 84.0038 515.406 84.3068 516.357 84.3068L520.349 84.3068L520.349 82.9417L519.504 84.042C519.749 84.214 520.046 84.3068 520.349 84.3068L520.349 82.9417L519.504 84.042L525.617 88.3313C526.353 88.8501 527.24 89.1259 528.148 89.1259C528.262 89.1259 528.376 89.1204 528.49 89.1122L539.291 88.2849L539.294 88.2849L539.18 86.9198L539.18 88.2904C539.217 88.2904 539.254 88.2877 539.294 88.2849L539.18 86.9198L539.18 88.2904L539.18 86.9198L538.897 88.2631C538.992 88.2794 539.086 88.2904 539.18 88.2904L539.18 86.9198L538.897 88.2631L547.587 89.9258L547.584 89.9258L547.866 88.588L546.973 89.6528C547.153 89.7893 547.364 89.8822 547.584 89.9258L547.866 88.588L546.973 89.6528L547.113 89.7593L562.677 101.672L562.674 101.669L563.564 100.607L562.386 101.371C562.466 101.483 562.563 101.584 562.674 101.669L563.564 100.607L562.386 101.371L572.801 116.099L572.781 116.074C572.956 116.323 573.155 116.544 573.369 116.74L573.392 116.762L583.329 125.857L583.329 125.854C584.133 126.591 585.195 126.993 586.288 126.993C586.576 126.993 586.867 126.963 587.155 126.905L599.009 124.56C600.473 124.271 601.672 123.271 602.174 121.928L606.44 110.496L606.44 110.499C606.591 110.095 606.674 109.672 606.688 109.243L607.097 96.2957L607.097 96.2848C607.099 96.2629 607.099 96.2274 607.099 96.1783C607.099 95.6213 606.979 95.078 606.763 94.5865C606.437 93.8493 605.898 93.2295 605.216 92.7872C604.537 92.3449 603.698 92.0828 602.819 92.0828L600.838 92.0828L600.838 93.448L601.969 92.6152C601.697 92.2794 601.281 92.0855 600.838 92.0828L600.838 93.448L601.969 92.6152L598.521 88.3477L598.524 88.3504L597.417 89.1668L598.607 88.4651C598.578 88.4214 598.55 88.3832 598.524 88.3504L597.417 89.1668L598.607 88.4651L594.384 81.9205L593.168 82.6386L594.598 82.6386C594.598 82.3956 594.526 82.1389 594.384 81.9205L593.168 82.6386L594.598 82.6386L593.171 82.6386L594.498 83.141C594.563 82.9799 594.598 82.8106 594.598 82.6386L593.171 82.6386L594.498 83.141L593.168 82.6386L594.201 83.5806C594.329 83.455 594.432 83.2993 594.498 83.141L593.168 82.6386L594.201 83.5806L597.317 80.4598L596.284 79.5178L596.835 80.7765C597.015 80.7055 597.183 80.5936 597.317 80.4598L596.284 79.5178L596.835 80.7765L596.284 79.5178L596.284 80.883C596.47 80.883 596.658 80.8475 596.835 80.7765L596.284 79.5178L596.284 80.883L596.284 79.5151L595.768 80.7902C595.936 80.853 596.11 80.883 596.284 80.883L596.284 79.5151L595.768 80.7902L596.284 79.5151L595.305 80.5117C595.437 80.6291 595.599 80.7274 595.768 80.7902L596.284 79.5151L595.305 80.5117C595.73 80.8939 596.253 81.3745 596.792 81.896C597.197 82.2864 597.611 82.6959 597.996 83.1027C598.573 83.7061 599.092 84.3068 599.397 84.7328C599.549 84.943 599.646 85.1095 599.666 85.156L599.671 85.1641L599.783 85.1205L599.668 85.1614L599.671 85.1641L599.783 85.1205L599.668 85.1614L600.536 84.842L599.631 85.0358C599.649 85.1123 599.666 85.1505 599.668 85.1614L600.536 84.842L599.631 85.0358L601.358 84.6645L599.591 84.6645C599.591 84.8392 599.614 84.9594 599.631 85.0358L601.358 84.6645L599.591 84.6645C599.591 84.9594 599.637 85.2652 599.728 85.5546C599.811 85.8276 599.937 86.0815 600.079 86.3C600.348 86.715 600.667 87.0017 600.958 87.2065C601.212 87.3867 601.449 87.5095 601.669 87.6078C602.054 87.7743 602.394 87.8644 602.722 87.9382C603.21 88.0419 603.678 88.0965 604.166 88.132C604.651 88.1675 605.153 88.1812 605.673 88.1812C607.256 88.1784 609.017 88.0556 610.621 87.9081C612.222 87.758 613.651 87.586 614.502 87.474C615.954 87.2884 617.204 86.401 617.812 85.1368L619.376 81.9041C619.641 81.3554 619.772 80.7656 619.772 80.1868C619.772 79.6571 619.664 79.1356 619.456 78.6441C619.25 78.1527 618.936 77.694 618.534 77.3036L610.444 69.4894L610.444 69.4866L609.428 70.4504L610.858 70.4504C610.858 70.09 610.709 69.7433 610.444 69.4866L609.428 70.4504L610.858 70.4504L609.337 70.4504L610.855 70.5159C610.858 70.4968 610.858 70.475 610.858 70.4504L609.337 70.4504L610.855 70.5159L611.257 61.2765L609.833 61.2192L610.524 62.4124C610.96 62.1803 611.237 61.7516 611.257 61.2738L609.833 61.2192L610.524 62.4124L616.134 59.4308C616.839 59.0595 617.41 58.4998 617.781 57.8691C618.152 57.2384 618.334 56.5449 618.334 55.8487C618.334 55.2261 618.186 54.5954 617.88 54.0111C617.575 53.4241 617.101 52.8917 616.508 52.4958L614.313 51.0269L613.497 52.1436L614.918 52.0316C614.881 51.6276 614.661 51.259 614.313 51.0269L613.497 52.1436L614.918 52.0316L614.111 42.7649L612.615 42.8905L614.116 42.8905C614.116 42.8578 614.116 42.8141 614.111 42.7649L612.615 42.8905L614.116 42.8905L612.69 42.8905L613.614 43.9308C613.934 43.6687 614.116 43.2892 614.116 42.8905L612.69 42.8905L613.614 43.9308L624.897 34.735L623.973 33.6948L623.973 35.0599C624.304 35.0599 624.635 34.948 624.897 34.735L623.973 33.6948L623.973 35.0599L623.973 33.6975L623.522 34.9917C623.668 35.0381 623.822 35.0599 623.973 35.0599L623.973 33.6975L623.522 34.9917L623.519 34.9917L634.765 38.5766L635.216 37.2824L634.052 38.0715C634.229 38.3091 634.477 38.4865 634.765 38.5766L635.216 37.2824L634.052 38.0715L643.823 51.2426L644.987 50.4508L643.649 50.9314C643.694 51.0433 643.751 51.147 643.823 51.2426L644.987 50.4508L643.649 50.9314L649.071 64.7632C649.168 65.0089 649.288 65.2465 649.433 65.4703L656.442 76.3671C657.009 77.2544 657.92 77.9069 658.976 78.1773C660.265 78.5076 663.65 79.3786 666.954 80.2632C668.607 80.7028 670.239 81.1479 671.569 81.5274C672.234 81.7158 672.824 81.8878 673.292 82.0325C673.529 82.1035 673.735 82.169 673.897 82.2236C674.063 82.2782 674.191 82.3246 674.251 82.3465L674.248 82.3465C674.645 82.4939 674.953 82.5485 675.23 82.584C675.507 82.6195 675.755 82.6277 675.995 82.6277C676.369 82.6277 676.734 82.6031 677.113 82.5649C677.824 82.4912 678.597 82.3656 679.448 82.2045C680.932 81.9233 682.641 81.5219 684.43 81.0687C687.115 80.3915 689.975 79.5888 692.403 78.8871C694.832 78.1827 696.823 77.5766 697.759 77.2899C698.835 76.9595 699.731 76.2333 700.254 75.2722L706.845 63.0731L706.851 63.0676L705.564 62.4369L706.723 63.2615C706.768 63.2042 706.811 63.1414 706.851 63.0676L705.564 62.4369L706.723 63.2615L722.657 42.7895L722.655 42.7922C722.931 42.4373 723.145 42.0414 723.291 41.6209L723.291 41.6237L733.784 11.0658L733.784 11.0686L732.431 10.6426L733.678 11.2979C733.724 11.2215 733.758 11.145 733.784 11.0686L732.431 10.6426L733.678 11.2979L733.681 11.2952L755.143 -26.2795L755.143 -26.2823C755.44 -26.801 755.617 -27.3799 755.657 -27.9696L755.657 -27.9723L756.978 -46.9208L755.554 -47.0109L756.433 -45.9352C756.753 -46.1727 756.95 -46.5331 756.978 -46.9181L755.554 -47.0109L756.433 -45.9352L765.89 -53.0176L765.011 -54.0906L765.011 -52.7282C765.325 -52.7255 765.639 -52.8293 765.89 -53.0176L765.011 -54.0906L765.011 -52.7282L765.011 -54.0961L764.475 -52.8265C764.646 -52.761 764.831 -52.7255 765.011 -52.7282L765.011 -54.0961L764.475 -52.8265C765.585 -52.3978 767.751 -51.5542 769.76 -50.7351C770.764 -50.3255 771.731 -49.9215 772.491 -49.5884C772.87 -49.4218 773.198 -49.2716 773.441 -49.1542C773.564 -49.0942 773.663 -49.045 773.729 -49.0095C773.763 -48.9904 773.789 -48.9767 773.803 -48.9685L773.815 -48.9631L774.029 -49.288L773.803 -48.9685L773.815 -48.9631L774.029 -49.288L773.803 -48.9685L774.973 -50.6477L773.349 -49.359C773.452 -49.2389 773.601 -49.0969 773.803 -48.9685L774.973 -50.6477L773.349 -49.359L774.505 -50.2764L773.09 -49.7631C773.113 -49.7085 773.167 -49.572 773.349 -49.359L774.505 -50.2764L773.09 -49.7631L773.506 -49.9132L773.078 -49.7959L773.09 -49.7631L773.506 -49.9132L773.078 -49.7959L773.084 -49.7795C773.093 -49.7385 773.113 -49.6238 773.127 -49.4709C773.141 -49.3153 773.15 -49.1214 773.15 -48.903C773.15 -48.3133 773.09 -47.5625 773.004 -46.858C772.919 -46.1509 772.81 -45.4792 772.725 -44.9986L772.727 -45.0068C772.685 -44.772 772.665 -44.5399 772.665 -44.3161C772.665 -43.0492 773.281 -41.8424 774.345 -41.0615L780.518 -36.5483L780.464 -36.5865C780.846 -36.3053 781.274 -36.0924 781.714 -35.9531C782.156 -35.8111 782.612 -35.7428 783.066 -35.7428C783.64 -35.7428 784.21 -35.8521 784.744 -36.0705C785.281 -36.2889 785.78 -36.6166 786.197 -37.0425L791.424 -42.4048C792.095 -43.0901 792.495 -43.9748 792.566 -44.9059L793.439 -56.5834L792.009 -56.6817L793.351 -56.1985C793.399 -56.3241 793.428 -56.4551 793.439 -56.5834L792.009 -56.6817L793.351 -56.1985L800.154 -73.5633L800.131 -73.5005L798.798 -73.9811L799.963 -73.1975C800.034 -73.293 800.088 -73.3968 800.131 -73.5005L798.798 -73.9811L799.963 -73.1975L808.221 -84.4245C808.732 -85.1208 809 -85.9454 809 -86.7808C809 -87.1767 808.94 -87.5781 808.815 -87.9685L808.817 -87.9658C808.369 -89.3774 807.254 -92.9131 806.201 -96.2851C805.673 -97.9697 805.162 -99.6133 804.757 -100.929C804.554 -101.587 804.38 -102.161 804.246 -102.614C804.177 -102.841 804.12 -103.034 804.075 -103.193C804.029 -103.348 803.998 -103.471 803.98 -103.529C803.849 -104.037 803.601 -104.473 803.33 -104.806C803.079 -105.12 802.808 -105.352 802.551 -105.541C802.063 -105.893 801.606 -106.101 801.158 -106.273C800.767 -106.42 800.382 -106.532 799.991 -106.63C799.309 -106.8 798.613 -106.92 797.914 -107.013C796.872 -107.152 795.833 -107.234 794.937 -107.283C794.044 -107.332 793.296 -107.351 792.86 -107.357L792.84 -105.989L793.553 -107.174C793.348 -107.288 793.111 -107.354 792.863 -107.357L792.84 -105.989L793.553 -107.174L793.556 -107.174L785.238 -111.782L784.513 -110.581L785.469 -111.621C785.395 -111.684 785.315 -111.739 785.238 -111.782L784.513 -110.581L785.469 -111.621L779.071 -116.978L779.068 -116.981C778.669 -117.314 778.215 -117.571 777.736 -117.737C777.256 -117.907 776.754 -117.991 776.252 -117.991C775.338 -117.994 774.408 -117.71 773.641 -117.145L769.132 -113.825C768.079 -113.049 767.46 -111.848 767.46 -110.578L767.46 -106.395L767.46 -98.0544L768.889 -98.0544L767.574 -98.5868C767.5 -98.4202 767.46 -98.2346 767.46 -98.0544L768.889 -98.0544L767.574 -98.5868L768.884 -98.0544L768.087 -99.1847C767.862 -99.0373 767.685 -98.8352 767.574 -98.5868L768.884 -98.0544L768.087 -99.1847L768.886 -98.0516L768.886 -99.4195C768.601 -99.4195 768.313 -99.3294 768.087 -99.1847L768.886 -98.0516L768.886 -99.4195L763.796 -99.4195L763.796 -98.0544L765.057 -98.6905C764.811 -99.1383 764.326 -99.4195 763.796 -99.4195L763.796 -98.0544L765.057 -98.6905L756.873 -113.53C756.527 -114.155 756.019 -114.682 755.4 -115.064L743.155 -122.597C742.465 -123.02 741.663 -123.247 740.841 -123.247L731.113 -123.247L717.087 -123.247L717.087 -121.879L717.607 -123.151C717.441 -123.214 717.264 -123.247 717.087 -123.247L717.087 -121.879L717.607 -123.151L707.662 -126.876L707.659 -126.876L707.139 -125.603L708.321 -126.373C708.158 -126.603 707.93 -126.775 707.659 -126.876L707.139 -125.603L708.321 -126.373L701.777 -135.555L700.602 -134.788L701.966 -135.176C701.923 -135.312 701.86 -135.441 701.777 -135.555L700.602 -134.788L701.966 -135.176L698.436 -146.57C698.245 -147.189 697.902 -147.757 697.434 -148.227L697.437 -148.227L688.987 -156.737L688.982 -156.74C688.833 -156.89 688.671 -157.029 688.497 -157.16L688.494 -157.163L683.015 -161.193L683.015 -161.196C682.264 -161.745 681.348 -162.042 680.406 -162.042C680.307 -162.042 680.204 -162.04 680.101 -162.031L675.181 -161.696C674.288 -161.635 673.452 -161.308 672.787 -160.792C672.122 -160.276 671.617 -159.56 671.372 -158.736L668.963 -150.676L668.963 -150.673L670.336 -150.299L669.252 -151.189C669.117 -151.039 669.02 -150.864 668.963 -150.673L670.336 -150.299L669.252 -151.189L664.472 -145.851L665.553 -144.964L665.553 -146.329C665.142 -146.329 664.746 -146.157 664.472 -145.851L665.553 -144.964L665.553 -146.329L665.553 -144.959L665.85 -146.299C665.753 -146.318 665.653 -146.329 665.553 -146.329L665.553 -144.959L665.85 -146.299L665.847 -146.299L658.448 -147.79L658.154 -146.455L659.304 -147.263C659.096 -147.533 658.79 -147.722 658.448 -147.79L658.154 -146.455L659.304 -147.263L654.749 -153.204L654.747 -153.207C654.361 -153.709 653.862 -154.119 653.283 -154.411L643.931 -159.096L643.937 -159.094L643.255 -157.857L644.02 -159.05C643.983 -159.069 643.957 -159.085 643.937 -159.094L643.255 -157.857L644.02 -159.05L644.011 -159.053L633.49 -165.182L633.504 -165.174L632.811 -164.098L633.578 -165.125C633.544 -165.149 633.518 -165.163 633.504 -165.174L632.811 -164.098L633.578 -165.125L623.962 -171.697L611.454 -180.671L611.457 -180.671C610.715 -181.204 609.813 -181.49 608.886 -181.49L599.7 -181.49C598.758 -181.49 597.848 -181.195 597.1 -180.649L590.026 -175.475L590.894 -174.389L590.894 -175.757C590.58 -175.757 590.274 -175.656 590.026 -175.475L590.894 -174.389L590.894 -175.757L513.437 -175.757L484.927 -175.757L484.927 -174.389L485.874 -175.41C485.611 -175.634 485.275 -175.754 484.927 -175.757L484.927 -174.389L485.874 -175.41L478.654 -181.55C477.855 -182.228 476.839 -182.585 475.809 -182.585C475.241 -182.585 474.665 -182.476 474.125 -182.252L468.938 -180.125L469.5 -178.869L469.5 -180.237C469.306 -180.237 469.114 -180.199 468.938 -180.125L469.5 -178.869L469.5 -180.237L469.5 -178.872L469.834 -180.199C469.725 -180.223 469.611 -180.237 469.5 -180.237L469.5 -178.872L469.834 -180.199L457.161 -183.126L456.827 -181.802L457.606 -182.94C457.469 -183.025 457.32 -183.088 457.161 -183.126L456.827 -181.802L457.606 -182.94L431.056 -199.584C431.056 -199.584 430.91 -199.674 430.639 -199.844C428.599 -201.11 419.376 -206.841 410.247 -212.594C405.684 -215.472 401.144 -218.352 397.545 -220.679C395.745 -221.842 394.181 -222.868 392.974 -223.677C392.369 -224.083 391.855 -224.433 391.456 -224.717C391.253 -224.856 391.082 -224.982 390.942 -225.083C390.805 -225.187 390.699 -225.268 390.642 -225.312L390.334 -225.561L389.969 -225.719L388.799 -223.229" fill="#6B855A" fill-opacity="0.09"/>
</g>
<defs>
<clipPath id="clip0_44_67">
<rect width="1920" height="435" fill="white"/>
</clipPath>
</defs>
</svg>
