<svg width="63" height="63" viewBox="0 0 63 63" fill="none" xmlns="http://www.w3.org/2000/svg">
<path fill-rule="evenodd" clip-rule="evenodd" d="M32.8275 0.594933L62.0862 29.8562C62.7579 30.5265 62.7579 31.6379 62.0862 32.312L32.8275 61.5707C32.1572 62.2411 31.0433 62.2411 30.3729 61.5707L1.11303 32.312C0.438887 31.6379 0.438887 30.5265 1.11303 29.8562L30.3729 0.594933C31.0433 -0.0754269 32.1572 -0.0754269 32.8275 0.594933Z" fill="#274A42"/>
<path d="M23.0645 26.2689C23.0645 25.8603 23.3956 25.5292 23.8041 25.5292H28.5296C28.9382 25.5292 29.2693 25.8603 29.2693 26.2689V28.6971H33.5891V26.2689C33.5891 25.8603 33.9201 25.5292 34.3286 25.5292H39.0543C39.4627 25.5292 39.7938 25.8603 39.7938 26.2689V28.6971H42.5428V22.1062C42.5428 21.4952 42.0476 21 41.4366 21H21.4216C20.8107 21 20.3154 21.4952 20.3154 22.1062V28.6971H23.0645V26.2689Z" fill="white"/>
<path d="M42.5425 29.3516L44.1718 33.1917C44.3738 33.6675 44.0245 34.195 43.5078 34.195H19.3499C18.833 34.195 18.4838 33.6675 18.6857 33.1917L20.3151 29.3516L17.3128 33.8129C17.1452 34.062 17.0557 34.3553 17.0557 34.6555V40.2427H19.2941V37.52H43.5634V40.2427H45.8019V34.6555C45.8019 34.3553 45.7124 34.062 45.5448 33.8129L42.5425 29.3516Z" fill="white"/>
</svg>
